<svg width="138" height="138" viewBox="0 0 138 138" fill="none" xmlns="http://www.w3.org/2000/svg">
<path d="M63.3937 86.25C73.397 86.25 81.5062 78.1408 81.5062 68.1375C81.5062 58.1342 73.397 50.025 63.3937 50.025C53.3905 50.025 45.2812 58.1342 45.2812 68.1375C45.2812 78.1408 53.3905 86.25 63.3937 86.25Z" fill="#CBBEFF"/>
<path d="M104.578 47.8687C112.319 47.8687 118.594 41.5937 118.594 33.8531C118.594 26.1125 112.319 19.8375 104.578 19.8375C96.8375 19.8375 90.5625 26.1125 90.5625 33.8531C90.5625 41.5937 96.8375 47.8687 104.578 47.8687Z" fill="#CBBEFF"/>
<path d="M23.7188 101.775C27.2913 101.775 30.1875 98.8788 30.1875 95.3062C30.1875 91.7337 27.2913 88.8375 23.7188 88.8375C20.1462 88.8375 17.25 91.7337 17.25 95.3062C17.25 98.8788 20.1462 101.775 23.7188 101.775Z" fill="#CBBEFF"/>
<path d="M107.812 106.087C113.767 106.087 118.594 101.261 118.594 95.3062C118.594 89.3519 113.767 84.525 107.812 84.525C101.858 84.525 97.0312 89.3519 97.0312 95.3062C97.0312 101.261 101.858 106.087 107.812 106.087Z" fill="#CBBEFF"/>
<path d="M73.3125 123.337C76.8851 123.337 79.7812 120.441 79.7812 116.869C79.7812 113.296 76.8851 110.4 73.3125 110.4C69.7399 110.4 66.8438 113.296 66.8438 116.869C66.8438 120.441 69.7399 123.337 73.3125 123.337Z" fill="#CBBEFF"/>
<path d="M30.1875 43.5562C34.951 43.5562 38.8125 39.6947 38.8125 34.9312C38.8125 30.1678 34.951 26.3062 30.1875 26.3062C25.424 26.3062 21.5625 30.1678 21.5625 34.9312C21.5625 39.6947 25.424 43.5562 30.1875 43.5562Z" fill="#CBBEFF"/>
</svg>
