<svg width="1336" height="669" viewBox="0 0 1336 669" fill="none" xmlns="http://www.w3.org/2000/svg">
<rect x="1.5" y="2.5" width="1333" height="665" rx="330.5" stroke="#575654"/>
<path d="M362.295 668.496C362.295 668.496 332.452 667.531 313.681 664.242C296.327 661.201 286.661 658.684 270.004 652.943C254.252 647.514 245.604 643.751 230.815 636.077C216.599 628.702 208.886 623.96 195.811 614.711C183.111 605.728 176.308 600.167 164.869 589.624C153.662 579.295 147.731 573.065 137.868 561.446C128.149 549.999 123.08 543.213 114.764 530.71C106.535 518.338 102.321 511.097 95.5318 497.881C88.7909 484.759 85.4186 477.159 80.1432 463.383C74.8921 449.67 72.3624 441.792 68.5983 427.599C64.8459 413.45 63.1661 405.376 60.9108 390.913C58.6595 376.475 57.8184 368.286 57.0671 353.693C56.3162 339.108 56.3162 330.881 57.0671 316.295C57.8184 301.702 58.6595 293.513 60.9108 279.075C63.1661 264.612 64.8459 256.538 68.5983 242.389C72.3624 228.196 74.8921 220.318 80.1432 206.605C85.4186 192.829 88.7909 185.229 95.5318 172.107C102.321 158.891 106.535 151.65 114.764 139.278C123.08 126.776 128.149 119.989 137.868 108.542C147.731 96.9234 153.662 90.6929 164.869 80.364C176.308 69.8215 183.111 64.2602 195.811 55.2771C208.886 46.0288 216.599 41.2868 230.815 33.9109C245.604 26.2373 254.252 22.4742 270.004 17.0449C286.661 11.3039 296.327 8.78728 313.681 5.74628C332.452 2.45681 362.295 1.49219 362.295 1.49219" stroke="#575654" stroke-miterlimit="10" stroke-linecap="round" stroke-linejoin="round"/>
<path d="M390.095 668.496C390.095 668.496 362.918 667.517 345.885 664.242C330.057 661.199 321.265 658.645 306.189 652.943C291.789 647.497 283.934 643.698 270.556 636.077C257.551 628.67 250.56 623.892 238.739 614.711C227.112 605.681 220.948 600.097 210.602 589.624C200.347 579.243 194.984 572.994 186.062 561.446C177.175 549.943 172.595 543.145 165.065 530.71C157.541 518.283 153.723 511.041 147.57 497.881C141.414 484.713 138.372 477.111 133.591 463.383C128.801 449.631 126.517 441.755 123.099 427.599C119.675 413.421 118.146 405.354 116.095 390.913C114.043 376.459 113.289 368.276 112.607 353.693C111.925 339.104 111.925 330.884 112.607 316.295C113.289 301.712 114.043 293.529 116.095 279.075C118.146 264.635 119.675 256.567 123.099 242.389C126.517 228.233 128.801 220.358 133.591 206.605C138.372 192.878 141.414 185.276 147.57 172.107C153.723 158.947 157.541 151.705 165.065 139.278C172.595 126.844 177.175 120.046 186.062 108.542C194.984 96.9946 200.347 90.7451 210.602 80.364C220.948 69.8909 227.112 64.3069 238.739 55.2771C250.56 46.0968 257.551 41.3188 270.556 33.9109C283.934 26.2908 291.789 22.4912 306.189 17.0449C321.265 11.3432 330.057 8.78946 345.885 5.74628C362.918 2.47146 390.095 1.49219 390.095 1.49219" stroke="#575654" stroke-miterlimit="10" stroke-linecap="round" stroke-linejoin="round"/>
<path d="M417.872 668.496C402.249 668.443 393.375 667.494 378.094 664.242C363.781 661.196 355.862 658.599 342.365 652.943C329.316 647.476 322.265 643.631 310.302 636.077C298.506 628.629 292.243 623.816 281.672 614.711C271.126 605.627 265.611 600.019 256.353 589.624C247.053 579.182 234.262 561.446 234.262 561.446L215.344 530.71L199.614 497.881C199.614 497.881 191.322 477.066 187.029 463.383C182.703 449.593 180.66 441.722 177.591 427.599C174.504 413.395 173.142 405.332 171.299 390.913C169.448 376.444 168.768 368.267 168.152 353.693C167.536 339.101 167.536 330.887 168.152 316.295C168.768 301.721 169.448 293.545 171.299 279.075C173.142 264.657 174.504 256.593 177.591 242.389C180.66 228.266 182.703 220.395 187.029 206.605C191.322 192.922 194.049 185.324 199.614 172.107C205.13 159.005 208.535 151.758 215.344 139.278C222.095 126.906 226.204 120.107 234.262 108.542C242.255 97.0694 247.053 90.806 256.353 80.364C265.611 69.9693 271.126 64.3612 281.672 55.2771C292.243 46.1725 298.506 41.3597 310.302 33.9109C322.265 26.3568 329.316 22.5124 342.365 17.0449C355.862 11.3897 363.781 8.7924 378.094 5.74628C393.375 2.49435 417.872 1.49219 417.872 1.49219" stroke="#575654" stroke-miterlimit="10" stroke-linecap="round" stroke-linejoin="round"/>
<path d="M445.676 668.496C445.676 668.496 423.847 667.464 410.317 664.242C397.51 661.192 390.472 658.537 378.555 652.943C366.845 647.447 360.604 643.554 350.048 636.077C339.46 628.578 333.934 623.729 324.606 614.711C315.141 605.562 310.272 599.937 302.09 589.624C293.753 579.116 289.514 572.848 282.448 561.446C275.243 549.821 271.635 543.014 265.664 530.71C259.579 518.172 256.565 510.93 251.67 497.881C246.696 484.618 244.278 477.026 240.467 463.383C236.606 449.559 234.806 441.691 232.082 427.599C229.332 413.37 228.125 405.313 226.488 390.913C224.841 376.43 224.243 368.259 223.697 353.693C223.15 339.099 223.15 330.89 223.697 316.295C224.243 301.729 224.841 293.558 226.488 279.075C228.125 264.676 229.332 256.618 232.082 242.389C234.806 228.297 236.606 220.429 240.467 206.605C244.278 192.963 246.696 185.37 251.67 172.107C256.565 159.058 259.579 151.816 265.664 139.278C271.635 126.975 275.243 120.167 282.448 108.542C289.514 97.1403 293.753 90.8726 302.09 80.364C310.272 70.0512 315.141 64.4264 324.606 55.2771C333.934 46.2594 339.46 41.4103 350.048 33.9109C360.604 26.4345 366.845 22.5412 378.555 17.0449C390.472 11.4508 397.51 8.79649 410.317 5.74628C423.847 2.52391 445.676 1.49219 445.676 1.49219" stroke="#575654" stroke-miterlimit="10" stroke-linecap="round" stroke-linejoin="round"/>
<path d="M473.465 668.496C473.465 668.496 454.298 667.423 442.524 664.242C431.212 661.186 425.066 658.46 414.728 652.943C404.356 647.408 398.943 643.457 389.792 636.077C380.41 628.512 375.623 623.636 367.523 614.711C359.151 605.488 354.936 599.851 347.825 589.624C340.468 579.043 336.796 572.772 330.645 561.446C324.296 549.755 321.16 542.953 315.954 530.71C310.6 518.118 307.98 510.881 303.711 497.881C299.343 484.575 297.247 476.986 293.917 463.383C290.525 449.525 288.941 441.666 286.558 427.599C284.144 413.349 283.105 405.295 281.675 390.913C280.233 376.418 279.705 368.252 279.226 353.693C278.746 339.096 278.746 330.892 279.226 316.295C279.705 301.736 280.233 293.571 281.675 279.075C283.105 264.693 284.144 256.639 286.558 242.389C288.941 228.322 290.525 220.463 293.917 206.605C297.247 193.002 299.343 185.413 303.711 172.107C307.98 159.107 310.6 151.87 315.954 139.278C321.16 127.035 324.296 120.233 330.645 108.542C336.796 97.2162 340.468 90.9457 347.825 80.364C354.936 70.1372 359.151 64.5005 367.523 55.2771C375.623 46.3528 380.41 41.4764 389.792 33.9109C398.943 26.5309 404.356 22.5801 414.728 17.0449C425.066 11.5283 431.212 8.80245 442.524 5.74628C454.298 2.56497 473.465 1.49219 473.465 1.49219" stroke="#575654" stroke-miterlimit="10" stroke-linecap="round" stroke-linejoin="round"/>
<path d="M501.244 668.496C490.76 668.328 484.744 667.363 474.734 664.242C464.902 661.177 459.667 658.357 450.906 652.943C441.859 647.353 437.288 643.347 429.526 636.077C421.361 628.43 417.325 623.532 410.444 614.711C403.181 605.401 399.617 599.763 393.564 589.624C387.2 578.964 384.093 572.698 378.846 561.446C373.362 549.688 370.684 542.897 366.234 530.71C361.618 518.067 359.39 510.837 355.743 497.881C351.986 484.535 350.202 476.953 347.357 463.383C344.447 449.496 343.105 441.641 341.065 427.599C338.992 413.329 338.096 405.281 336.866 390.913C335.624 376.407 335.171 368.246 334.759 353.693C334.346 339.094 334.346 330.894 334.759 316.295C335.171 301.743 335.624 293.581 336.866 279.075C338.096 264.707 338.992 256.66 341.065 242.389C343.105 228.348 344.447 220.492 347.357 206.605C350.202 193.036 351.986 185.453 355.743 172.107C359.39 159.152 361.618 151.921 366.234 139.278C370.684 127.091 373.362 120.301 378.846 108.542C384.093 97.2906 387.2 91.0239 393.564 80.364C399.617 70.225 403.181 64.5876 410.444 55.2771C417.325 46.4563 421.361 41.5583 429.526 33.9109C437.288 26.6413 441.859 22.6355 450.906 17.0449C459.667 11.631 464.902 8.81161 474.734 5.74628C484.744 2.62547 501.244 1.49219 501.244 1.49219" stroke="#575654" stroke-miterlimit="10" stroke-linecap="round" stroke-linejoin="round"/>
<path d="M529.044 668.496C529.044 668.496 515.198 667.275 506.952 664.242C498.577 661.162 494.282 658.227 487.091 652.943C479.374 647.274 475.679 643.213 469.295 636.077C462.356 628.322 459.059 623.426 453.373 614.711C447.235 605.305 444.322 599.676 439.311 589.624C433.956 578.883 431.394 572.631 427.041 561.446C422.441 549.625 420.23 542.845 416.536 530.71C412.671 518.018 410.83 510.796 407.795 497.881C404.65 484.498 403.161 476.924 400.792 463.383C398.357 449.471 397.25 441.62 395.553 427.599C393.822 413.312 393.075 405.269 392.051 390.913C391.015 376.398 390.642 368.24 390.3 353.693C389.956 339.092 389.956 330.896 390.3 316.295C390.642 301.748 391.015 293.59 392.051 279.075C393.075 264.72 393.822 256.677 395.553 242.389C397.25 228.368 398.357 220.517 400.792 206.605C403.161 193.064 404.651 185.49 407.795 172.107C410.83 159.192 412.671 151.97 416.536 139.278C420.23 127.143 422.441 120.364 427.041 108.542C431.394 97.3571 433.956 91.1055 439.311 80.364C444.322 70.3125 447.235 64.683 453.373 55.2771C459.059 46.5622 462.356 41.6659 469.295 33.9109C475.679 26.7752 479.374 22.714 487.091 17.0449C494.282 11.7615 498.577 8.82664 506.952 5.74628C515.198 2.71354 520.261 1.73849 529.044 1.49219" stroke="#575654" stroke-miterlimit="10" stroke-linecap="round" stroke-linejoin="round"/>
<path d="M556.836 668.496C549.929 666.835 545.634 667.144 539.149 664.242C532.206 661.135 528.919 658.051 523.282 652.943C516.891 647.154 514.069 643.075 509.029 636.077C503.353 628.198 496.307 614.711 496.307 614.711C496.307 614.711 489.036 599.595 485.05 589.624C480.723 578.804 478.699 572.571 475.228 561.446C471.522 549.566 469.764 542.8 466.816 530.71C463.71 517.975 462.245 510.764 459.826 497.881C457.308 484.468 456.135 476.899 454.245 463.383C452.296 449.448 451.405 441.604 450.046 427.599C448.657 413.298 448.063 405.258 447.242 390.913C446.41 376.391 446.108 368.236 445.833 353.693C445.556 339.091 445.556 330.897 445.833 316.295C446.108 301.752 446.41 293.597 447.242 279.075C448.063 264.73 448.657 256.69 450.046 242.389C451.405 228.384 452.296 220.54 454.245 206.605C456.135 193.089 457.308 185.52 459.826 172.107C462.245 159.225 463.71 152.013 466.816 139.278C469.764 127.188 471.522 120.422 475.228 108.542C478.699 97.4174 480.723 91.1846 485.05 80.364C489.036 70.3932 491.327 64.7904 496.307 55.2771C500.812 46.6739 503.353 41.7906 509.029 33.9109C514.069 26.9136 516.891 22.8347 523.282 17.0449C528.919 11.9376 532.206 8.85359 539.149 5.74628C545.634 2.84442 556.836 1.49219 556.836 1.49219" stroke="#575654" stroke-miterlimit="10" stroke-linecap="round" stroke-linejoin="round"/>
<path d="M584.633 668.496C584.633 668.496 576.097 666.928 571.364 664.242C565.791 661.079 563.593 657.844 559.464 652.943C554.44 646.981 552.508 642.926 548.781 636.077C544.411 628.048 542.571 623.216 539.219 614.711C535.43 605.096 533.764 599.523 530.793 589.624C527.523 578.73 526.015 572.521 523.42 561.446C520.625 549.516 519.319 542.763 517.114 530.71C514.778 517.939 513.688 510.736 511.875 497.881C509.98 484.442 509.094 476.88 507.676 463.383C506.21 449.432 505.546 441.591 504.53 427.599C503.49 413.287 503.047 405.25 502.437 390.913C501.818 376.385 501.601 368.233 501.397 353.693C501.193 339.09 501.193 330.899 501.397 316.295C501.601 301.756 501.818 293.603 502.437 279.075C503.047 264.738 503.49 256.701 504.53 242.389C505.546 228.397 506.21 220.557 507.676 206.605C509.094 193.108 509.98 185.546 511.875 172.107C513.688 159.252 514.778 152.049 517.114 139.278C519.319 127.225 520.625 120.472 523.42 108.542C526.015 97.4673 527.523 91.2585 530.793 80.364C533.764 70.4654 535.43 64.8924 539.219 55.2771C542.571 46.7722 544.411 41.9401 548.781 33.9109C552.508 27.0627 554.44 23.0077 559.464 17.0449C563.593 12.1439 565.791 8.90946 571.364 5.74628C576.097 3.06039 584.633 1.49219 584.633 1.49219" stroke="#575654" stroke-miterlimit="10" stroke-linecap="round" stroke-linejoin="round"/>
<path d="M612.495 668.004C612.495 668.004 606.686 666.095 603.659 663.75C599.394 660.446 598.398 657.129 595.711 652.451C592.15 646.251 591.036 642.302 588.585 635.585C585.599 627.407 584.442 622.638 582.224 614.219C579.666 604.509 578.562 598.978 576.588 589.132C574.393 578.181 573.412 571.99 571.691 560.954C569.825 548.984 568.96 542.243 567.492 530.218C565.929 517.419 565.2 510.225 563.99 497.389C562.722 483.932 562.131 476.374 561.186 462.891C560.207 448.927 559.77 441.089 559.093 427.107C558.4 412.787 558.106 404.752 557.698 390.421C557.284 375.889 557.137 367.738 557 353.201C556.863 338.597 556.863 330.407 557 315.803C557.137 301.266 557.284 293.115 557.698 278.583C558.106 264.252 558.4 256.217 559.093 241.897C559.77 227.915 560.207 220.077 561.186 206.113C562.131 192.629 562.722 185.072 563.99 171.615C565.2 158.779 565.929 151.584 567.492 138.786C568.96 126.761 569.825 120.02 571.691 108.05C573.412 97.0141 574.393 90.8231 576.588 79.8718C578.562 70.0264 579.666 64.4948 582.224 54.7849C584.442 46.3662 585.599 41.5968 588.585 33.4187C591.036 26.7018 595.711 16.5527 595.711 16.5527C595.711 16.5527 599.394 8.5579 603.659 5.25409C606.686 2.90852 612.495 1 612.495 1" stroke="#575654" stroke-miterlimit="10" stroke-linecap="round" stroke-linejoin="round"/>
<path d="M640.203 668.496C638.239 667.125 637.23 666.152 635.785 664.242C632.964 660.512 633.13 657.432 631.818 652.943C629.929 646.482 629.477 642.698 628.262 636.077C626.738 627.779 626.165 623.076 625.061 614.711C623.771 604.938 623.253 599.433 622.27 589.624C621.169 578.633 620.658 572.459 619.794 561.446C618.854 549.452 618.431 542.719 617.702 530.71C616.923 517.895 616.567 510.705 615.964 497.881C615.331 484.412 615.028 476.858 614.555 463.383C614.066 449.411 613.855 441.576 613.516 427.599C613.168 413.274 613.01 405.241 612.805 390.913C612.596 376.379 612.529 368.229 612.463 353.693C612.395 339.088 612.395 330.9 612.463 316.295C612.529 301.76 612.596 293.61 612.805 279.075C613.01 264.747 613.168 256.714 613.516 242.389C613.855 228.413 614.066 220.577 614.555 206.605C615.028 193.13 615.331 185.576 615.964 172.107C616.567 159.283 616.923 152.093 617.702 139.278C618.431 127.269 618.854 120.536 619.794 108.542C620.658 97.5293 621.169 91.3556 622.27 80.364C623.253 70.5556 623.771 65.0498 625.061 55.2771C626.165 46.9125 626.738 42.2093 628.262 33.9109C629.477 27.2902 630.283 23.599 631.818 17.0449C633 12 635.473 6.04671 640.203 1.49219" stroke="#575654" stroke-miterlimit="10" stroke-linecap="round" stroke-linejoin="round"/>
<path d="M973.909 668.496C973.909 668.496 1003.75 667.531 1022.52 664.242C1039.88 661.201 1049.54 658.684 1066.2 652.943C1081.95 647.514 1090.6 643.751 1105.39 636.077C1119.6 628.702 1127.32 623.96 1140.39 614.711C1153.09 605.728 1159.9 600.167 1171.33 589.624C1182.54 579.295 1188.47 573.065 1198.34 561.446C1208.05 549.999 1213.12 543.213 1221.44 530.71C1229.67 518.338 1233.88 511.097 1240.67 497.881C1247.41 484.759 1250.79 477.159 1256.06 463.383C1261.31 449.67 1263.84 441.792 1267.61 427.599C1271.36 413.45 1273.04 405.376 1275.29 390.913C1277.54 376.475 1278.39 368.286 1279.14 353.693C1279.89 339.108 1279.89 330.881 1279.14 316.295C1278.39 301.702 1277.54 293.513 1275.29 279.075C1273.04 264.612 1271.36 256.538 1267.61 242.389C1263.84 228.196 1261.31 220.318 1256.06 206.605C1250.79 192.829 1247.41 185.229 1240.67 172.107C1233.88 158.891 1229.67 151.65 1221.44 139.278C1213.12 126.776 1208.05 119.989 1198.34 108.542C1188.47 96.9234 1182.54 90.6929 1171.33 80.364C1159.9 69.8215 1153.09 64.2602 1140.39 55.2771C1127.32 46.0288 1119.6 41.2868 1105.39 33.9109C1090.6 26.2373 1081.95 22.4742 1066.2 17.0449C1049.54 11.3039 1039.88 8.78728 1022.52 5.74628C1003.75 2.45681 973.909 1.49219 973.909 1.49219" stroke="#575654" stroke-miterlimit="10" stroke-linecap="round" stroke-linejoin="round"/>
<path d="M946.108 668.496C946.108 668.496 973.285 667.517 990.318 664.242C1006.15 661.199 1014.94 658.645 1030.01 652.943C1044.41 647.497 1052.27 643.698 1065.65 636.077C1078.65 628.67 1085.64 623.892 1097.46 614.711C1109.09 605.681 1115.26 600.097 1125.6 589.624C1135.86 579.243 1141.22 572.994 1150.14 561.446C1159.03 549.943 1163.61 543.145 1171.14 530.71C1178.66 518.283 1182.48 511.041 1188.63 497.881C1194.79 484.713 1197.83 477.111 1202.61 463.383C1207.4 449.631 1209.69 441.755 1213.1 427.599C1216.53 413.421 1218.06 405.354 1220.11 390.913C1222.16 376.459 1222.91 368.276 1223.6 353.693C1224.28 339.104 1224.28 330.884 1223.6 316.295C1222.91 301.712 1222.16 293.529 1220.11 279.075C1218.06 264.635 1216.53 256.567 1213.1 242.389C1209.69 228.233 1207.4 220.358 1202.61 206.605C1197.83 192.878 1194.79 185.276 1188.63 172.107C1182.48 158.947 1178.66 151.705 1171.14 139.278C1163.61 126.844 1159.03 120.046 1150.14 108.542C1141.22 96.9946 1135.86 90.7451 1125.6 80.364C1115.26 69.8909 1109.09 64.3069 1097.46 55.2771C1085.64 46.0968 1078.65 41.3188 1065.65 33.9109C1052.27 26.2908 1044.41 22.4912 1030.01 17.0449C1014.94 11.3432 1006.15 8.78946 990.318 5.74628C973.285 2.47146 946.108 1.49219 946.108 1.49219" stroke="#575654" stroke-miterlimit="10" stroke-linecap="round" stroke-linejoin="round"/>
<path d="M918.332 668.496C933.955 668.443 942.829 667.494 958.11 664.242C972.424 661.196 980.342 658.599 993.839 652.943C1006.89 647.476 1013.94 643.631 1025.9 636.077C1037.7 628.629 1043.96 623.816 1054.53 614.711C1065.08 605.627 1070.59 600.019 1079.85 589.624C1089.15 579.182 1101.94 561.446 1101.94 561.446L1120.86 530.71L1136.59 497.881C1136.59 497.881 1144.88 477.066 1149.17 463.383C1153.5 449.593 1155.54 441.722 1158.61 427.599C1161.7 413.395 1163.06 405.332 1164.91 390.913C1166.76 376.444 1167.44 368.267 1168.05 353.693C1168.67 339.101 1168.67 330.887 1168.05 316.295C1167.44 301.721 1166.76 293.545 1164.91 279.075C1163.06 264.657 1161.7 256.593 1158.61 242.389C1155.54 228.266 1153.5 220.395 1149.17 206.605C1144.88 192.922 1142.16 185.324 1136.59 172.107C1131.07 159.005 1127.67 151.758 1120.86 139.278C1114.11 126.906 1110 120.107 1101.94 108.542C1093.95 97.0694 1089.15 90.806 1079.85 80.364C1070.59 69.9693 1065.08 64.3612 1054.53 55.2771C1043.96 46.1725 1037.7 41.3597 1025.9 33.9109C1013.94 26.3568 1006.89 22.5124 993.839 17.0449C980.342 11.3897 972.424 8.7924 958.11 5.74628C942.829 2.49435 918.332 1.49219 918.332 1.49219" stroke="#575654" stroke-miterlimit="10" stroke-linecap="round" stroke-linejoin="round"/>
<path d="M751.571 668.496C751.571 668.496 760.107 666.928 764.84 664.242C770.413 661.079 772.611 657.844 776.74 652.943C781.764 646.981 783.696 642.926 787.423 636.077C791.793 628.048 793.633 623.216 796.985 614.711C800.774 605.096 802.44 599.523 805.411 589.624C808.681 578.73 810.189 572.521 812.784 561.446C815.579 549.516 816.885 542.763 819.09 530.71C821.426 517.939 822.516 510.736 824.329 497.881C826.224 484.442 827.11 476.88 828.528 463.383C829.994 449.432 830.658 441.591 831.674 427.599C832.714 413.287 833.157 405.25 833.767 390.913C834.386 376.385 834.603 368.233 834.807 353.693C835.011 339.09 835.011 330.899 834.807 316.295C834.603 301.756 834.386 293.603 833.767 279.075C833.157 264.738 832.714 256.701 831.674 242.389C830.658 228.397 829.994 220.557 828.528 206.605C827.11 193.108 826.224 185.546 824.329 172.107C822.516 159.252 821.426 152.049 819.09 139.278C816.885 127.225 815.579 120.472 812.784 108.542C810.189 97.4673 808.681 91.2585 805.411 80.364C802.44 70.4654 800.774 64.8924 796.985 55.2771C793.633 46.7722 791.793 41.9401 787.423 33.9109C783.696 27.0627 781.764 23.0077 776.74 17.0449C772.611 12.1439 770.413 8.90946 764.84 5.74628C760.107 3.06039 751.571 1.49219 751.571 1.49219" stroke="#575654" stroke-miterlimit="10" stroke-linecap="round" stroke-linejoin="round"/>
<path d="M890.528 668.496C890.528 668.496 912.358 667.464 925.887 664.242C938.695 661.192 945.732 658.537 957.65 652.943C969.359 647.447 975.601 643.554 986.156 636.077C996.744 628.578 1002.27 623.729 1011.6 614.711C1021.06 605.562 1025.93 599.937 1034.11 589.624C1042.45 579.116 1046.69 572.848 1053.76 561.446C1060.96 549.821 1064.57 543.014 1070.54 530.71C1076.63 518.172 1079.64 510.93 1084.53 497.881C1089.51 484.618 1091.93 477.026 1095.74 463.383C1099.6 449.559 1101.4 441.691 1104.12 427.599C1106.87 413.37 1108.08 405.313 1109.72 390.913C1111.36 376.43 1111.96 368.259 1112.51 353.693C1113.05 339.099 1113.05 330.89 1112.51 316.295C1111.96 301.729 1111.36 293.558 1109.72 279.075C1108.08 264.676 1106.87 256.618 1104.12 242.389C1101.4 228.297 1099.6 220.429 1095.74 206.605C1091.93 192.963 1089.51 185.37 1084.53 172.107C1079.64 159.058 1076.63 151.816 1070.54 139.278C1064.57 126.975 1060.96 120.167 1053.76 108.542C1046.69 97.1403 1042.45 90.8726 1034.11 80.364C1025.93 70.0512 1021.06 64.4264 1011.6 55.2771C1002.27 46.2594 996.744 41.4103 986.156 33.9109C975.601 26.4345 969.359 22.5412 957.65 17.0449C945.732 11.4508 938.695 8.79649 925.887 5.74628C912.358 2.52391 890.528 1.49219 890.528 1.49219" stroke="#575654" stroke-miterlimit="10" stroke-linecap="round" stroke-linejoin="round"/>
<path d="M723.709 668.004C723.709 668.004 729.518 666.095 732.545 663.75C736.81 660.446 737.806 657.129 740.493 652.451C744.054 646.251 745.168 642.302 747.619 635.585C750.605 627.407 751.762 622.638 753.98 614.219C756.538 604.509 757.642 598.978 759.616 589.132C761.811 578.181 762.792 571.99 764.513 560.954C766.379 548.984 767.244 542.243 768.712 530.218C770.275 517.419 771.004 510.225 772.214 497.389C773.482 483.932 774.073 476.374 775.018 462.891C775.997 448.927 776.435 441.089 777.111 427.107C777.804 412.787 778.098 404.752 778.506 390.421C778.92 375.889 779.067 367.738 779.204 353.201C779.341 338.597 779.341 330.407 779.204 315.803C779.067 301.266 778.92 293.115 778.506 278.583C778.098 264.252 777.804 256.217 777.111 241.897C776.435 227.915 775.997 220.077 775.018 206.113C774.073 192.629 773.482 185.072 772.214 171.615C771.004 158.779 770.275 151.584 768.712 138.786C767.244 126.761 766.379 120.02 764.513 108.05C762.792 97.0141 761.811 90.8231 759.616 79.8718C757.642 70.0264 756.538 64.4948 753.98 54.7849C751.762 46.3662 747.619 33.4187 747.619 33.4187C747.619 33.4187 744.054 22.7531 740.493 16.5527C737.806 11.8749 736.81 8.5579 732.545 5.25409C729.518 2.90852 723.709 1 723.709 1" stroke="#575654" stroke-miterlimit="10" stroke-linecap="round" stroke-linejoin="round"/>
<path d="M862.739 668.496C862.739 668.496 881.906 667.423 893.681 664.242C904.992 661.186 911.138 658.46 921.476 652.943C931.848 647.408 937.261 643.457 946.412 636.077C955.794 628.512 960.581 623.636 968.681 614.711C977.053 605.488 981.268 599.851 988.379 589.624C995.737 579.043 999.408 572.772 1005.56 561.446C1011.91 549.755 1015.04 542.953 1020.25 530.71C1025.6 518.118 1028.22 510.881 1032.49 497.881C1036.86 484.575 1038.96 476.986 1042.29 463.383C1045.68 449.525 1047.26 441.666 1049.65 427.599C1052.06 413.349 1053.1 405.295 1054.53 390.913C1055.97 376.418 1056.5 368.252 1056.98 353.693C1057.46 339.096 1057.46 330.892 1056.98 316.295C1056.5 301.736 1055.97 293.571 1054.53 279.075C1053.1 264.693 1052.06 256.639 1049.65 242.389C1047.26 228.322 1045.68 220.463 1042.29 206.605C1038.96 193.002 1036.86 185.413 1032.49 172.107C1028.22 159.107 1025.6 151.87 1020.25 139.278C1015.04 127.035 1011.91 120.233 1005.56 108.542C999.408 97.2162 995.737 90.9457 988.379 80.364C981.268 70.1372 977.053 64.5005 968.681 55.2771C960.581 46.3528 955.794 41.4764 946.412 33.9109C937.261 26.5309 931.848 22.5801 921.476 17.0449C911.138 11.5283 904.992 8.80245 893.681 5.74628C881.906 2.56497 862.739 1.49219 862.739 1.49219" stroke="#575654" stroke-miterlimit="10" stroke-linecap="round" stroke-linejoin="round"/>
<path d="M834.961 668.496C845.444 668.328 851.46 667.363 861.47 664.242C871.302 661.177 876.538 658.357 885.298 652.943C894.345 647.353 898.916 643.347 906.678 636.077C914.844 628.43 918.879 623.532 925.76 614.711C933.023 605.401 936.587 599.763 942.64 589.624C949.004 578.964 952.111 572.698 957.358 561.446C962.842 549.688 965.52 542.897 969.97 530.71C974.586 518.067 976.814 510.837 980.462 497.881C984.219 484.535 986.002 476.953 988.847 463.383C991.758 449.496 993.099 441.641 995.139 427.599C997.212 413.329 998.108 405.281 999.338 390.913C1000.58 376.407 1001.03 368.246 1001.44 353.693C1001.86 339.094 1001.86 330.894 1001.44 316.295C1001.03 301.743 1000.58 293.581 999.338 279.075C998.108 264.707 997.212 256.66 995.139 242.389C993.099 228.348 991.758 220.492 988.847 206.605C986.002 193.036 984.219 185.453 980.462 172.107C976.814 159.152 974.586 151.921 969.97 139.278C965.52 127.091 962.842 120.301 957.358 108.542C952.111 97.2906 949.004 91.0239 942.64 80.364C936.587 70.225 933.023 64.5876 925.76 55.2771C918.879 46.4563 914.844 41.5583 906.678 33.9109C898.916 26.6413 894.345 22.6355 885.298 17.0449C876.538 11.631 871.302 8.81161 861.47 5.74628C851.46 2.62547 834.961 1.49219 834.961 1.49219" stroke="#575654" stroke-miterlimit="10" stroke-linecap="round" stroke-linejoin="round"/>
<path d="M807.16 668.496C807.16 668.496 821.005 667.275 829.251 664.242C837.626 661.162 841.921 658.227 849.112 652.943C856.829 647.274 860.524 643.213 866.908 636.077C873.847 628.322 877.144 623.426 882.83 614.711C888.968 605.305 891.882 599.676 896.892 589.624C902.247 578.883 904.809 572.631 909.162 561.446C913.763 549.625 915.973 542.845 919.667 530.71C923.532 518.018 925.373 510.796 928.408 497.881C931.553 484.498 933.042 476.924 935.412 463.383C937.846 449.471 938.953 441.62 940.651 427.599C942.381 413.312 943.128 405.269 944.152 390.913C945.188 376.398 945.561 368.24 945.903 353.693C946.247 339.092 946.247 330.896 945.903 316.295C945.561 301.748 945.188 293.59 944.152 279.075C943.128 264.72 942.381 256.677 940.651 242.389C938.953 228.368 937.846 220.517 935.412 206.605C933.042 193.064 931.553 185.49 928.408 172.107C925.373 159.192 923.532 151.97 919.667 139.278C915.973 127.143 913.763 120.364 909.162 108.542C904.809 97.3571 902.247 91.1055 896.892 80.364C891.882 70.3125 888.968 64.683 882.83 55.2771C877.144 46.5622 873.847 41.6659 866.908 33.9109C860.524 26.7752 856.829 22.714 849.112 17.0449C841.921 11.7615 837.626 8.82664 829.251 5.74628C821.005 2.71354 815.942 1.73849 807.16 1.49219" stroke="#575654" stroke-miterlimit="10" stroke-linecap="round" stroke-linejoin="round"/>
<path d="M779.367 668.496C786.274 666.835 790.57 667.144 797.054 664.242C803.997 661.135 807.284 658.051 812.921 652.943C819.312 647.154 822.134 643.075 827.175 636.077C832.85 628.198 839.896 614.711 839.896 614.711C839.896 614.711 847.167 599.595 851.153 589.624C855.48 578.804 857.504 572.571 860.975 561.446C864.681 549.566 866.439 542.8 869.387 530.71C872.493 517.975 873.958 510.764 876.377 497.881C878.895 484.468 880.068 476.899 881.958 463.383C883.907 449.448 884.798 441.604 886.157 427.599C887.546 413.298 888.14 405.258 888.962 390.913C889.793 376.391 890.095 368.236 890.371 353.693C890.647 339.091 890.647 330.897 890.371 316.295C890.095 301.752 889.793 293.597 888.962 279.075C888.14 264.73 887.546 256.69 886.157 242.389C884.798 228.384 883.907 220.54 881.958 206.605C880.068 193.089 878.895 185.52 876.377 172.107C873.958 159.225 872.493 152.013 869.387 139.278C866.439 127.188 864.681 120.422 860.975 108.542C857.504 97.4174 855.48 91.1846 851.153 80.364C847.167 70.3932 844.877 64.7904 839.896 55.2771C835.392 46.6739 832.85 41.7906 827.175 33.9109C822.134 26.9136 819.312 22.8347 812.921 17.0449C807.284 11.9376 803.997 8.85359 797.054 5.74628C790.57 2.84442 779.367 1.49219 779.367 1.49219" stroke="#575654" stroke-miterlimit="10" stroke-linecap="round" stroke-linejoin="round"/>
<path d="M696 668.496C697.964 667.125 698.973 666.152 700.418 664.242C703.239 660.512 703.073 657.432 704.385 652.943C706.274 646.482 706.726 642.698 707.942 636.077C709.465 627.779 710.039 623.076 711.142 614.711C712.432 604.938 712.95 599.433 713.933 589.624C715.034 578.633 715.545 572.459 716.409 561.446C717.349 549.452 717.772 542.719 718.502 530.71C719.28 517.895 719.636 510.705 720.239 497.881C720.872 484.412 721.175 476.858 721.648 463.383C722.137 449.411 722.348 441.576 722.687 427.599C723.035 413.274 723.193 405.241 723.399 390.913C723.607 376.379 723.674 368.229 723.741 353.693C723.808 339.088 723.808 330.9 723.741 316.295C723.674 301.76 723.607 293.61 723.399 279.075C723.193 264.747 723.035 256.714 722.687 242.389C722.348 228.413 722.137 220.577 721.648 206.605C721.175 193.13 720.872 185.576 720.239 172.107C719.636 159.283 719.28 152.093 718.502 139.278C717.772 127.269 717.349 120.536 716.409 108.542C715.545 97.5293 715.034 91.3556 713.933 80.364C712.95 70.5556 712.432 65.0498 711.142 55.2771C710.039 46.9125 709.465 42.2093 707.942 33.9109C706.726 27.2902 706 23.5 704.5 17C703.435 12.3861 703.239 9.47617 700.418 5.74628C698.973 3.83586 697.725 3.15351 696 1.49219" stroke="#575654" stroke-miterlimit="10" stroke-linecap="round" stroke-linejoin="round"/>
<path d="M668.004 668.496V1.49219" stroke="#575654" stroke-miterlimit="10" stroke-linecap="round" stroke-linejoin="round"/>
<path d="M334.504 668.496H1001.51" stroke="#575654" stroke-miterlimit="10" stroke-linecap="round" stroke-linejoin="round"/>
<path d="M262.329 660.586H1073.67" stroke="#575654" stroke-miterlimit="10" stroke-linecap="round" stroke-linejoin="round"/>
<path d="M200.16 640.227H1135.84" stroke="#575654" stroke-miterlimit="10" stroke-linecap="round" stroke-linejoin="round"/>
<path d="M146.954 610.773H1189.06" stroke="#575654" stroke-miterlimit="10" stroke-linecap="round" stroke-linejoin="round"/>
<path d="M102.248 574.326H1233.76" stroke="#575654" stroke-miterlimit="10" stroke-linecap="round" stroke-linejoin="round"/>
<path d="M65.7549 532.473H1270.25" stroke="#575654" stroke-miterlimit="10" stroke-linecap="round" stroke-linejoin="round"/>
<path d="M37.4111 486.555H1298.58" stroke="#575654" stroke-miterlimit="10" stroke-linecap="round" stroke-linejoin="round"/>
<path d="M17.2021 437.645H1318.82" stroke="#575654" stroke-miterlimit="10" stroke-linecap="round" stroke-linejoin="round"/>
<path d="M5.05371 386.789H1330.96" stroke="#575654" stroke-miterlimit="10" stroke-linecap="round" stroke-linejoin="round"/>
<path d="M1 335H1335.01" stroke="#575654" stroke-miterlimit="10" stroke-linecap="round" stroke-linejoin="round"/>
<path d="M5.05371 283.203H1330.96" stroke="#575654" stroke-miterlimit="10" stroke-linecap="round" stroke-linejoin="round"/>
<path d="M17.2021 232.355H1318.82" stroke="#575654" stroke-miterlimit="10" stroke-linecap="round" stroke-linejoin="round"/>
<path d="M37.4111 183.438H1298.58" stroke="#575654" stroke-miterlimit="10" stroke-linecap="round" stroke-linejoin="round"/>
<path d="M65.7549 137.52H1270.25" stroke="#575654" stroke-miterlimit="10" stroke-linecap="round" stroke-linejoin="round"/>
<path d="M102.248 95.6738H1233.76" stroke="#575654" stroke-miterlimit="10" stroke-linecap="round" stroke-linejoin="round"/>
<path d="M146.954 59.2188H1189.06" stroke="#575654" stroke-miterlimit="10" stroke-linecap="round" stroke-linejoin="round"/>
<path d="M200.16 29.7578H1135.84" stroke="#575654" stroke-miterlimit="10" stroke-linecap="round" stroke-linejoin="round"/>
<path d="M262.329 9.40625H1073.67" stroke="#575654" stroke-miterlimit="10" stroke-linecap="round" stroke-linejoin="round"/>
<path d="M334.504 1.49609H1001.51" stroke="#575654" stroke-miterlimit="10" stroke-linecap="round" stroke-linejoin="round"/>
</svg>
